<svg xmlns="http://www.w3.org/2000/svg" viewBox="60 0 280 120">
  <defs>
    <linearGradient id="orbitGrad" x1="100%" y1="100%" x2="0%" y2="0%">
      <stop offset="0%" stop-color="#2c80ff" stop-opacity="0" />
      <stop offset="100%" stop-color="#0d6cfa" stop-opacity="1" />
    </linearGradient>
  </defs>

  <text x="200" y="85" font-family="Poppins, sans-serif" font-size="52" font-weight="700" text-anchor="middle" fill="#ffffff" letter-spacing="1">
    Gate<tspan fill="#FAB95B">Way</tspan>
  </text>

  <path d="M 70,80 C 70,130 330,130 330,80 C 330,30 180,20 130,35" fill="none" stroke="url(#orbitGrad)" stroke-width="3" stroke-linecap="round" stroke-dasharray="6 6"/>

  <g transform="translate(110, 22) rotate(-75) scale(1.3)"> 
    <path fill="#ffffff" d="M21,16 v-2 l-8,-5 V3.5 C13,2.67 12.33,2 11.5,2 C10.67,2 10,2.67 10,3.5 V9 l-8,5 v2 l8,-2.5 V19 l-2,1.5 V22 l3.5,-1 l3.5,1 v-1.5 L13,19 v-5.5 L21,16 z"/>
</g>
</svg>
